<mxfile host="app.diagrams.net" modified="2023-08-01T04:00:55.555Z" agent="Mozilla/5.0 (Windows NT 10.0; Win64; x64) AppleWebKit/537.36 (KHTML, like Gecko) Chrome/115.0.0.0 Safari/537.36" etag="6YFyup5Eo6yzaVbAhVS_" version="21.6.6" type="device">
  <diagram name="PÃ¡gina-1" id="MVxgPDsF1Q5p4WSXjRkE">
    <mxGraphModel dx="1151" dy="492" grid="1" gridSize="10" guides="1" tooltips="1" connect="1" arrows="1" fold="1" page="1" pageScale="1" pageWidth="827" pageHeight="1169" math="0" shadow="0">
      <root>
        <mxCell id="0" />
        <mxCell id="1" parent="0" />
        <mxCell id="KuZKqpBDm68Vl12jDoK6-8" value="Use" style="edgeStyle=orthogonalEdgeStyle;rounded=0;orthogonalLoop=1;jettySize=auto;html=1;" edge="1" parent="1" source="KuZKqpBDm68Vl12jDoK6-1" target="KuZKqpBDm68Vl12jDoK6-5">
          <mxGeometry relative="1" as="geometry" />
        </mxCell>
        <mxCell id="KuZKqpBDm68Vl12jDoK6-1" value="Server.ts" style="swimlane;fontStyle=0;childLayout=stackLayout;horizontal=1;startSize=30;horizontalStack=0;resizeParent=1;resizeParentMax=0;resizeLast=0;collapsible=1;marginBottom=0;whiteSpace=wrap;html=1;" vertex="1" parent="1">
          <mxGeometry x="90" y="40" width="140" height="90" as="geometry" />
        </mxCell>
        <mxCell id="KuZKqpBDm68Vl12jDoK6-3" value="app ( Controllers[ ] )" style="text;strokeColor=none;fillColor=none;align=left;verticalAlign=middle;spacingLeft=4;spacingRight=4;overflow=hidden;points=[[0,0.5],[1,0.5]];portConstraint=eastwest;rotatable=0;whiteSpace=wrap;html=1;" vertex="1" parent="KuZKqpBDm68Vl12jDoK6-1">
          <mxGeometry y="30" width="140" height="30" as="geometry" />
        </mxCell>
        <mxCell id="KuZKqpBDm68Vl12jDoK6-4" value="app.listen()" style="text;strokeColor=none;fillColor=none;align=left;verticalAlign=middle;spacingLeft=4;spacingRight=4;overflow=hidden;points=[[0,0.5],[1,0.5]];portConstraint=eastwest;rotatable=0;whiteSpace=wrap;html=1;" vertex="1" parent="KuZKqpBDm68Vl12jDoK6-1">
          <mxGeometry y="60" width="140" height="30" as="geometry" />
        </mxCell>
        <mxCell id="KuZKqpBDm68Vl12jDoK6-30" value="Use" style="edgeStyle=orthogonalEdgeStyle;rounded=0;orthogonalLoop=1;jettySize=auto;html=1;entryX=0.5;entryY=0;entryDx=0;entryDy=0;" edge="1" parent="1" source="KuZKqpBDm68Vl12jDoK6-5" target="KuZKqpBDm68Vl12jDoK6-20">
          <mxGeometry relative="1" as="geometry" />
        </mxCell>
        <mxCell id="KuZKqpBDm68Vl12jDoK6-5" value="App.ts" style="swimlane;fontStyle=0;childLayout=stackLayout;horizontal=1;startSize=30;horizontalStack=0;resizeParent=1;resizeParentMax=0;resizeLast=0;collapsible=1;marginBottom=0;whiteSpace=wrap;html=1;" vertex="1" parent="1">
          <mxGeometry x="45" y="190" width="230" height="240" as="geometry" />
        </mxCell>
        <mxCell id="KuZKqpBDm68Vl12jDoK6-12" value="app : express.Application" style="text;strokeColor=none;fillColor=none;align=left;verticalAlign=middle;spacingLeft=4;spacingRight=4;overflow=hidden;points=[[0,0.5],[1,0.5]];portConstraint=eastwest;rotatable=0;whiteSpace=wrap;html=1;" vertex="1" parent="KuZKqpBDm68Vl12jDoK6-5">
          <mxGeometry y="30" width="230" height="30" as="geometry" />
        </mxCell>
        <mxCell id="KuZKqpBDm68Vl12jDoK6-9" value="constructor( Controllers[ ] )" style="text;strokeColor=none;fillColor=none;align=left;verticalAlign=middle;spacingLeft=4;spacingRight=4;overflow=hidden;points=[[0,0.5],[1,0.5]];portConstraint=eastwest;rotatable=0;whiteSpace=wrap;html=1;" vertex="1" parent="KuZKqpBDm68Vl12jDoK6-5">
          <mxGeometry y="60" width="230" height="30" as="geometry" />
        </mxCell>
        <mxCell id="KuZKqpBDm68Vl12jDoK6-13" value="listen()" style="text;strokeColor=none;fillColor=none;align=left;verticalAlign=middle;spacingLeft=4;spacingRight=4;overflow=hidden;points=[[0,0.5],[1,0.5]];portConstraint=eastwest;rotatable=0;whiteSpace=wrap;html=1;" vertex="1" parent="KuZKqpBDm68Vl12jDoK6-5">
          <mxGeometry y="90" width="230" height="30" as="geometry" />
        </mxCell>
        <mxCell id="KuZKqpBDm68Vl12jDoK6-14" value="getServer()" style="text;strokeColor=none;fillColor=none;align=left;verticalAlign=middle;spacingLeft=4;spacingRight=4;overflow=hidden;points=[[0,0.5],[1,0.5]];portConstraint=eastwest;rotatable=0;whiteSpace=wrap;html=1;" vertex="1" parent="KuZKqpBDm68Vl12jDoK6-5">
          <mxGeometry y="120" width="230" height="30" as="geometry" />
        </mxCell>
        <mxCell id="KuZKqpBDm68Vl12jDoK6-11" value="initializeMiddlewares()" style="text;strokeColor=none;fillColor=none;align=left;verticalAlign=middle;spacingLeft=4;spacingRight=4;overflow=hidden;points=[[0,0.5],[1,0.5]];portConstraint=eastwest;rotatable=0;whiteSpace=wrap;html=1;" vertex="1" parent="KuZKqpBDm68Vl12jDoK6-5">
          <mxGeometry y="150" width="230" height="30" as="geometry" />
        </mxCell>
        <mxCell id="KuZKqpBDm68Vl12jDoK6-10" value="initializeErrorHandling()" style="text;strokeColor=none;fillColor=none;align=left;verticalAlign=middle;spacingLeft=4;spacingRight=4;overflow=hidden;points=[[0,0.5],[1,0.5]];portConstraint=eastwest;rotatable=0;whiteSpace=wrap;html=1;" vertex="1" parent="KuZKqpBDm68Vl12jDoK6-5">
          <mxGeometry y="180" width="230" height="30" as="geometry" />
        </mxCell>
        <mxCell id="KuZKqpBDm68Vl12jDoK6-16" value="initializeControllers(Controllers[ ] )" style="text;strokeColor=none;fillColor=none;align=left;verticalAlign=middle;spacingLeft=4;spacingRight=4;overflow=hidden;points=[[0,0.5],[1,0.5]];portConstraint=eastwest;rotatable=0;whiteSpace=wrap;html=1;" vertex="1" parent="KuZKqpBDm68Vl12jDoK6-5">
          <mxGeometry y="210" width="230" height="30" as="geometry" />
        </mxCell>
        <mxCell id="KuZKqpBDm68Vl12jDoK6-17" value="controller.interface.ts" style="swimlane;fontStyle=0;childLayout=stackLayout;horizontal=1;startSize=30;horizontalStack=0;resizeParent=1;resizeParentMax=0;resizeLast=0;collapsible=1;marginBottom=0;whiteSpace=wrap;html=1;" vertex="1" parent="1">
          <mxGeometry x="435" y="525" width="140" height="90" as="geometry" />
        </mxCell>
        <mxCell id="KuZKqpBDm68Vl12jDoK6-18" value="path: string" style="text;strokeColor=none;fillColor=none;align=left;verticalAlign=middle;spacingLeft=4;spacingRight=4;overflow=hidden;points=[[0,0.5],[1,0.5]];portConstraint=eastwest;rotatable=0;whiteSpace=wrap;html=1;" vertex="1" parent="KuZKqpBDm68Vl12jDoK6-17">
          <mxGeometry y="30" width="140" height="30" as="geometry" />
        </mxCell>
        <mxCell id="KuZKqpBDm68Vl12jDoK6-19" value="router: Router" style="text;strokeColor=none;fillColor=none;align=left;verticalAlign=middle;spacingLeft=4;spacingRight=4;overflow=hidden;points=[[0,0.5],[1,0.5]];portConstraint=eastwest;rotatable=0;whiteSpace=wrap;html=1;" vertex="1" parent="KuZKqpBDm68Vl12jDoK6-17">
          <mxGeometry y="60" width="140" height="30" as="geometry" />
        </mxCell>
        <mxCell id="KuZKqpBDm68Vl12jDoK6-20" value="controller" style="swimlane;fontStyle=0;childLayout=stackLayout;horizontal=1;startSize=30;horizontalStack=0;resizeParent=1;resizeParentMax=0;resizeLast=0;collapsible=1;marginBottom=0;whiteSpace=wrap;html=1;" vertex="1" parent="1">
          <mxGeometry x="45" y="525" width="300" height="120" as="geometry" />
        </mxCell>
        <mxCell id="KuZKqpBDm68Vl12jDoK6-21" value="initializeRouters()" style="text;strokeColor=none;fillColor=none;align=left;verticalAlign=middle;spacingLeft=4;spacingRight=4;overflow=hidden;points=[[0,0.5],[1,0.5]];portConstraint=eastwest;rotatable=0;whiteSpace=wrap;html=1;" vertex="1" parent="KuZKqpBDm68Vl12jDoK6-20">
          <mxGeometry y="30" width="300" height="30" as="geometry" />
        </mxCell>
        <mxCell id="KuZKqpBDm68Vl12jDoK6-27" value="routeMethod(Request, Response)" style="text;strokeColor=none;fillColor=none;align=left;verticalAlign=middle;spacingLeft=4;spacingRight=4;overflow=hidden;points=[[0,0.5],[1,0.5]];portConstraint=eastwest;rotatable=0;whiteSpace=wrap;html=1;" vertex="1" parent="KuZKqpBDm68Vl12jDoK6-20">
          <mxGeometry y="60" width="300" height="30" as="geometry" />
        </mxCell>
        <mxCell id="KuZKqpBDm68Vl12jDoK6-28" value="routeMethod(Request, Response, NextFunction)" style="text;strokeColor=none;fillColor=none;align=left;verticalAlign=middle;spacingLeft=4;spacingRight=4;overflow=hidden;points=[[0,0.5],[1,0.5]];portConstraint=eastwest;rotatable=0;whiteSpace=wrap;html=1;" vertex="1" parent="KuZKqpBDm68Vl12jDoK6-20">
          <mxGeometry y="90" width="300" height="30" as="geometry" />
        </mxCell>
        <mxCell id="KuZKqpBDm68Vl12jDoK6-24" style="edgeStyle=orthogonalEdgeStyle;rounded=0;orthogonalLoop=1;jettySize=auto;html=1;entryX=1;entryY=0.5;entryDx=0;entryDy=0;shape=flexArrow;" edge="1" parent="1" source="KuZKqpBDm68Vl12jDoK6-18" target="KuZKqpBDm68Vl12jDoK6-21">
          <mxGeometry relative="1" as="geometry" />
        </mxCell>
        <mxCell id="KuZKqpBDm68Vl12jDoK6-31" value="MiddleWares" style="swimlane;fontStyle=0;childLayout=stackLayout;horizontal=1;startSize=30;horizontalStack=0;resizeParent=1;resizeParentMax=0;resizeLast=0;collapsible=1;marginBottom=0;whiteSpace=wrap;html=1;" vertex="1" parent="1">
          <mxGeometry x="540" y="240" width="420" height="90" as="geometry" />
        </mxCell>
        <mxCell id="KuZKqpBDm68Vl12jDoK6-32" value="functionName(Error, Request, Response, NextFunction)" style="text;strokeColor=none;fillColor=none;align=left;verticalAlign=middle;spacingLeft=4;spacingRight=4;overflow=hidden;points=[[0,0.5],[1,0.5]];portConstraint=eastwest;rotatable=0;whiteSpace=wrap;html=1;" vertex="1" parent="KuZKqpBDm68Vl12jDoK6-31">
          <mxGeometry y="30" width="420" height="30" as="geometry" />
        </mxCell>
        <mxCell id="KuZKqpBDm68Vl12jDoK6-33" value="router: Router" style="text;strokeColor=none;fillColor=none;align=left;verticalAlign=middle;spacingLeft=4;spacingRight=4;overflow=hidden;points=[[0,0.5],[1,0.5]];portConstraint=eastwest;rotatable=0;whiteSpace=wrap;html=1;" vertex="1" parent="KuZKqpBDm68Vl12jDoK6-31">
          <mxGeometry y="60" width="420" height="30" as="geometry" />
        </mxCell>
      </root>
    </mxGraphModel>
  </diagram>
</mxfile>
